<svg width="37" height="37" viewBox="0 0 37 37" fill="none" xmlns="http://www.w3.org/2000/svg">
<path d="M18.4987 3.08398C9.9887 3.08398 3.08203 9.99065 3.08203 18.5007C3.08203 27.0107 9.9887 33.9173 18.4987 33.9173C27.0087 33.9173 33.9154 27.0107 33.9154 18.5007C33.9154 9.99065 27.0087 3.08398 18.4987 3.08398ZM25.652 13.5673C25.4208 16.0032 24.4187 21.9232 23.9099 24.6519C23.6941 25.8081 23.2624 26.1936 22.8616 26.2398C21.9674 26.3169 21.2891 25.654 20.4258 25.0836C19.0691 24.1894 18.2983 23.6344 16.9879 22.7711C15.4616 21.769 16.4483 21.214 17.327 20.3198C17.5583 20.0886 21.5049 16.4965 21.582 16.1727C21.5927 16.1237 21.5913 16.0728 21.5779 16.0244C21.5644 15.9761 21.5394 15.9317 21.5049 15.8952C21.4124 15.8182 21.2891 15.849 21.1812 15.8644C21.0424 15.8952 18.8841 17.329 14.6754 20.1657C14.0587 20.5819 13.5037 20.7977 13.0104 20.7823C12.4554 20.7669 11.407 20.474 10.6208 20.2119C9.64953 19.9036 8.89411 19.734 8.95578 19.1944C8.98661 18.9169 9.37203 18.6394 10.0966 18.3465C14.5983 16.3886 17.5891 15.0936 19.0845 14.4769C23.3704 12.6886 24.2491 12.3802 24.8349 12.3802C24.9583 12.3802 25.2512 12.4111 25.4362 12.5652C25.5904 12.6886 25.6366 12.8582 25.652 12.9815C25.6366 13.074 25.6674 13.3515 25.652 13.5673Z" fill="white"/>
</svg>
