<svg width="38" height="38" viewBox="0 0 38 38" fill="none" xmlns="http://www.w3.org/2000/svg">
<path d="M20.626 3.16602C22.4072 3.17077 23.3113 3.18027 24.0919 3.20243L24.399 3.21352C24.7537 3.22618 25.1036 3.24202 25.5264 3.26102C27.211 3.34018 28.3605 3.60618 29.3691 3.99727C30.4141 4.39943 31.2945 4.9441 32.1748 5.82285C32.9802 6.61409 33.6033 7.5716 34.0004 8.62852C34.3915 9.6371 34.6575 10.7866 34.7366 12.4728C34.7556 12.894 34.7715 13.2439 34.7841 13.6002L34.7936 13.9073C34.8174 14.6863 34.8269 15.5904 34.83 17.3717L34.8316 18.5528V20.627C34.8355 21.7819 34.8233 22.9368 34.7952 24.0913L34.7857 24.3985C34.773 24.7548 34.7572 25.1047 34.7382 25.5258C34.659 27.2121 34.3899 28.36 34.0004 29.3702C33.6033 30.4271 32.9802 31.3846 32.1748 32.1758C31.3836 32.9813 30.426 33.6043 29.3691 34.0014C28.3605 34.3925 27.211 34.6585 25.5264 34.7377L24.399 34.7852L24.0919 34.7947C23.3113 34.8168 22.4072 34.8279 20.626 34.8311L19.4448 34.8327H17.3722C16.2168 34.8368 15.0614 34.8246 13.9063 34.7963L13.5991 34.7868C13.2233 34.7725 12.8475 34.7562 12.4718 34.7377C10.7871 34.6585 9.63763 34.3925 8.62746 34.0014C7.57111 33.6041 6.61416 32.9811 5.82338 32.1758C5.01738 31.3848 4.3938 30.4272 3.99621 29.3702C3.60513 28.3616 3.33913 27.2121 3.25996 25.5258L3.21246 24.3985L3.20455 24.0913C3.17536 22.9368 3.16216 21.7819 3.16496 20.627V17.3717C3.16058 16.2168 3.17219 15.0619 3.1998 13.9073L3.21088 13.6002C3.22355 13.2439 3.23938 12.894 3.25838 12.4728C3.33755 10.7866 3.60355 9.63868 3.99463 8.62852C4.39315 7.57116 5.01782 6.61362 5.82496 5.82285C6.61529 5.0178 7.57168 4.3948 8.62746 3.99727C9.63763 3.60618 10.7855 3.34018 12.4718 3.26102C12.893 3.24202 13.2445 3.22618 13.5991 3.21352L13.9063 3.20402C15.0609 3.17588 16.2157 3.16374 17.3706 3.1676L20.626 3.16602ZM18.9983 11.0827C16.8987 11.0827 14.885 11.9168 13.4004 13.4014C11.9157 14.8861 11.0816 16.8997 11.0816 18.9993C11.0816 21.099 11.9157 23.1126 13.4004 24.5973C14.885 26.0819 16.8987 26.916 18.9983 26.916C21.0979 26.916 23.1116 26.0819 24.5962 24.5973C26.0809 23.1126 26.915 21.099 26.915 18.9993C26.915 16.8997 26.0809 14.8861 24.5962 13.4014C23.1116 11.9168 21.0979 11.0827 18.9983 11.0827ZM18.9983 14.2493C19.6221 14.2492 20.2398 14.372 20.8161 14.6106C21.3924 14.8492 21.9161 15.199 22.3573 15.64C22.7984 16.081 23.1484 16.6046 23.3872 17.1809C23.626 17.7571 23.749 18.3748 23.7491 18.9986C23.7492 19.6223 23.6264 20.24 23.3878 20.8164C23.1492 21.3927 22.7994 21.9164 22.3584 22.3575C21.9174 22.7987 21.3938 23.1487 20.8176 23.3875C20.2413 23.6263 19.6237 23.7492 18.9999 23.7493C17.7401 23.7493 16.5319 23.2489 15.6411 22.3581C14.7503 21.4673 14.2499 20.2591 14.2499 18.9993C14.2499 17.7396 14.7503 16.5314 15.6411 15.6406C16.5319 14.7498 17.7401 14.2493 18.9999 14.2493M27.3124 8.70768C26.7875 8.70768 26.2841 8.9162 25.9129 9.28737C25.5417 9.65853 25.3332 10.1619 25.3332 10.6868C25.3332 11.2118 25.5417 11.7152 25.9129 12.0863C26.2841 12.4575 26.7875 12.666 27.3124 12.666C27.8373 12.666 28.3407 12.4575 28.7119 12.0863C29.083 11.7152 29.2915 11.2118 29.2915 10.6868C29.2915 10.1619 29.083 9.65853 28.7119 9.28737C28.3407 8.9162 27.8373 8.70768 27.3124 8.70768Z" fill="white"/>
</svg>
