<svg width="32" height="32" viewBox="0 0 32 32" fill="none" xmlns="http://www.w3.org/2000/svg">
<path fillRule="evenodd" clip-rule="evenodd" d="M16 32C24.8366 32 32 24.8366 32 16C32 7.16344 24.8366 0 16 0C7.16344 0 0 7.16344 0 16C0 24.8366 7.16344 32 16 32ZM21.3492 13.1438C21.5844 12.9086 21.5844 12.5273 21.3492 12.2921C21.114 12.0569 20.7327 12.0569 20.4975 12.2921L14.3593 18.4304L11.5031 15.5742C11.2679 15.339 10.8866 15.339 10.6514 15.5742C10.4162 15.8094 10.4162 16.1907 10.6514 16.4259L13.9334 19.7079C14.0464 19.8208 14.1996 19.8843 14.3593 19.8843C14.519 19.8843 14.6722 19.8208 14.7851 19.7079L21.3492 13.1438Z" fill="#EE4248"/>
</svg>
