<svg width="46" height="42" viewBox="0 0 46 42" fill="none" xmlns="http://www.w3.org/2000/svg">
<path d="M45.5 41.25H0.5V36.75H2.75V3C2.75 2.40326 2.98705 1.83097 3.40901 1.40901C3.83097 0.987053 4.40326 0.75 5 0.75H36.5C37.0967 0.75 37.669 0.987053 38.091 1.40901C38.5129 1.83097 38.75 2.40326 38.75 3V14.25H43.25V36.75H45.5V41.25ZM34.25 36.75H38.75V18.75H25.25V36.75H29.75V23.25H34.25V36.75ZM34.25 14.25V5.25H7.25V36.75H20.75V14.25H34.25ZM11.75 18.75H16.25V23.25H11.75V18.75ZM11.75 27.75H16.25V32.25H11.75V27.75ZM11.75 9.75H16.25V14.25H11.75V9.75Z" fill="black"/>
</svg>
