<svg width="54" height="55" viewBox="0 0 54 55" fill="none" xmlns="http://www.w3.org/2000/svg">
<rect y="0.409912" width="54" height="54" rx="27" fill="#EFEFEF"/>
<path d="M19 35C18.45 35 17.9793 34.8043 17.588 34.413C17.1967 34.0217 17.0007 33.5507 17 33V21C17 20.45 17.196 19.9793 17.588 19.588C17.98 19.1967 18.4507 19.0007 19 19H35C35.55 19 36.021 19.196 36.413 19.588C36.805 19.98 37.0007 20.4507 37 21V33C37 33.55 36.8043 34.021 36.413 34.413C36.0217 34.805 35.5507 35.0007 35 35H19ZM27 28L35 23V21L27 26L19 21V23L27 28Z" fill="#FF0000"/>
</svg>
