<svg width="46" height="44" viewBox="0 0 46 44" fill="none" xmlns="http://www.w3.org/2000/svg">
<path d="M5 0.75C2.5025 0.75 0.5 2.7525 0.5 5.25V27.75C0.5 28.9435 0.974106 30.0881 1.81802 30.932C2.66193 31.7759 3.80653 32.25 5 32.25H23V43.5L29.75 36.75L36.5 43.5V32.25H41C42.1935 32.25 43.3381 31.7759 44.182 30.932C45.0259 30.0881 45.5 28.9435 45.5 27.75V5.25C45.5 4.05653 45.0259 2.91193 44.182 2.06802C43.3381 1.22411 42.1935 0.75 41 0.75H5ZM23 5.25L29.75 9.75L36.5 5.25V13.125L43.25 16.5L36.5 19.875V27.75L29.75 23.25L23 27.75V19.875L16.25 16.5L23 13.125V5.25ZM5 5.25H16.25V9.75H5V5.25ZM5 14.25H11.75V18.75H5V14.25ZM5 23.25H16.25V27.75H5V23.25Z" fill="black"/>
</svg>
