<svg width="40" height="40" viewBox="0 0 40 40" fill="none" xmlns="http://www.w3.org/2000/svg">
<g clip-path="url(#clip0_188_3841)">
<path d="M35.1747 12.9145C35.1747 14.1235 34.6944 15.2831 33.8395 16.138C32.9845 16.9929 31.825 17.4732 30.6159 17.4732C29.4069 17.4732 28.2473 16.9929 27.3924 16.138C26.5375 15.2831 26.0572 14.1235 26.0572 12.9145C26.0572 11.7054 26.5375 10.5459 27.3924 9.69094C28.2473 8.83601 29.4069 8.35571 30.6159 8.35571C31.825 8.35571 32.9845 8.83601 33.8395 9.69094C34.6944 10.5459 35.1747 11.7054 35.1747 12.9145ZM2.05906 3.91321V12.1813H0.822813C0.76709 12.1815 0.711883 12.1707 0.660362 12.1494C0.60884 12.1282 0.56202 12.097 0.522589 12.0576C0.483157 12.0183 0.451891 11.9715 0.430586 11.92C0.40928 11.8685 0.398355 11.8133 0.398438 11.7576V1.08884C0.398438 0.727588 0.667813 0.433838 1.03719 0.433838H6.50406C6.87281 0.433838 7.14281 0.726963 7.14281 1.08759V1.71384H15.5947C15.8309 1.71384 16.0197 1.90321 16.0197 2.13634V4.53509H8.80469V3.90696C8.80469 3.54634 8.53469 3.25321 8.16469 3.25321H2.69969C2.32969 3.25321 2.05906 3.55134 2.05906 3.91321Z" fill="black"/>
<path d="M19.34 17.1874C19.34 17.2431 19.329 17.2983 19.3076 17.3497C19.2862 17.4011 19.2549 17.4478 19.2154 17.4871C19.1759 17.5263 19.129 17.5574 19.0775 17.5785C19.0259 17.5996 18.9707 17.6102 18.915 17.6099H4.14313C4.08743 17.6102 4.03224 17.5994 3.98072 17.5782C3.9292 17.5571 3.88238 17.5259 3.84294 17.4866C3.8035 17.4473 3.77222 17.4006 3.75091 17.3491C3.7296 17.2976 3.71867 17.2425 3.71875 17.1868V6.51804C3.71875 6.15679 3.98813 5.86304 4.3575 5.86304H9.82312C10.1931 5.86304 10.4631 6.15616 10.4631 6.51679V7.14304H18.915C19.1506 7.14304 19.34 7.33241 19.34 7.56554V17.1874ZM12.7875 11.113V8.59679H10.27V11.113H7.75313V13.6305H10.27V16.1474H12.7875V13.6305H15.3044V11.113H12.7875ZM35.1175 18.6474C35.7178 18.6468 36.3124 18.7646 36.8672 18.9939C37.422 19.2233 37.9262 19.5597 38.3509 19.984C38.7756 20.4083 39.1126 20.9122 39.3424 21.4668C39.5723 22.0214 39.6906 22.6158 39.6906 23.2162L39.7 39.9243H24.36V26.0737H23.7388L20.91 30.2943C20.4494 30.9224 19.5144 31.2268 18.7688 31.2268H12.1275C11.5979 31.227 11.0899 31.0169 10.7151 30.6427C10.3403 30.2685 10.1294 29.7608 10.1288 29.2312C10.1288 28.1312 11.0244 27.2624 12.1275 27.2624H18.1681L22.3588 20.9262C23.3625 19.3937 25.3263 18.653 26.9069 18.653L35.1169 18.648L35.1175 18.6474Z" fill="black"/>
</g>
<defs>
<clipPath id="clip0_188_3841">
<rect width="40" height="40" fill="white"/>
</clipPath>
</defs>
</svg>
