<svg width="54" height="55" viewBox="0 0 54 55" fill="none" xmlns="http://www.w3.org/2000/svg">
<rect y="0.409912" width="54" height="54" rx="27" fill="#EFEFEF"/>
<path d="M33.2756 36.168C33.1059 36.5902 32.8018 36.7627 32.3633 36.6854C27.9316 35.904 24.423 33.667 21.8375 29.9744C19.2519 26.2818 18.3498 22.2197 19.1312 17.7881C19.2085 17.3495 19.4746 17.1228 19.9295 17.1078L23.6767 16.9117C24.1356 16.8736 24.4187 17.0902 24.526 17.5613L25.5041 21.732C25.6006 22.1298 25.4628 22.4387 25.0908 22.6587L22.7144 23.9889C23.0974 25.4605 23.7283 26.8093 24.6069 28.0352C25.4814 29.2842 26.5331 30.3383 27.7619 31.1975L29.8593 29.4254C30.1702 29.1471 30.5076 29.1233 30.8715 29.354L34.4561 31.6996C34.839 31.9575 34.9341 32.2956 34.7414 32.7138L33.2756 36.168Z" fill="#FF0000"/>
</svg>
